<?xml version="1.0" standalone="no"?>
<!DOCTYPE svg PUBLIC "-//W3C//DTD SVG 20010904//EN"
 "http://www.w3.org/TR/2001/REC-SVG-20010904/DTD/svg10.dtd">
<svg version="1.0" xmlns="http://www.w3.org/2000/svg"
 width="512.000000pt" height="512.000000pt" viewBox="0 0 512.000000 512.000000"
 preserveAspectRatio="xMidYMid meet">

<g transform="translate(0.000000,512.000000) scale(0.100000,-0.100000)"
fill="#000000" stroke="none">
<path d="M3254 3871 c-12 -5 -31 -22 -44 -38 -17 -22 -21 -37 -17 -71 4 -41
19 -67 111 -194 19 -26 46 -85 61 -130 35 -104 88 -218 120 -256 l25 -29 -25
-98 c-53 -208 -18 -412 86 -499 68 -57 120 -20 140 98 l12 78 36 -69 c35 -67
141 -182 236 -256 l40 -31 -45 49 c-81 88 -186 261 -241 398 -12 31 -26 57
-30 57 -4 0 -21 -22 -38 -48 -21 -34 -34 -70 -42 -122 -16 -109 -19 -114 -46
-95 -27 19 -63 112 -73 190 -9 76 4 194 30 270 27 79 26 95 -13 141 -44 51
-52 67 -98 196 -48 133 -54 146 -124 243 -30 43 -58 88 -61 101 -7 28 11 54
37 54 33 0 127 -40 186 -80 47 -31 71 -40 123 -45 161 -18 296 -91 456 -250
127 -125 199 -228 263 -378 70 -165 160 -342 184 -365 13 -12 64 -36 113 -52
65 -22 119 -51 202 -107 61 -41 112 -80 112 -84 0 -5 -21 -9 -47 -9 -57 0
-165 -22 -217 -44 l-37 -15 20 -39 c29 -57 108 -123 209 -176 49 -25 117 -66
151 -91 35 -26 65 -44 67 -42 3 2 -20 34 -51 70 -54 63 -124 122 -195 165 -42
24 -86 69 -77 78 3 3 64 17 136 31 75 15 131 31 131 37 0 18 -81 97 -165 161
-43 33 -129 85 -189 115 l-111 55 -52 105 c-28 58 -78 164 -110 235 -32 72
-80 164 -107 205 -74 111 -222 254 -349 339 -123 82 -191 110 -292 118 -58 5
-78 11 -116 39 -96 70 -221 108 -275 85z"/>
<path d="M3584 3538 c9 -13 26 -41 37 -62 20 -38 22 -39 35 -21 19 26 17 48
-7 79 -14 18 -30 26 -51 26 -30 0 -30 -1 -14 -22z"/>
<path d="M96 2252 c-93 -32 -91 -22 -94 -423 l-3 -349 85 0 86 0 0 327 c0 179
2 324 5 321 3 -3 68 -142 143 -309 157 -348 158 -349 264 -349 35 0 75 7 95
16 40 20 56 49 214 402 l104 234 3 -321 2 -321 85 0 85 0 0 356 0 356 -28 28
c-61 61 -204 62 -264 2 -17 -16 -78 -142 -159 -322 -72 -162 -132 -296 -133
-297 -1 -2 -57 125 -125 280 -67 156 -131 298 -142 316 -23 37 -88 71 -139 70
-19 0 -57 -8 -84 -17z"/>
<path d="M2380 2233 c-106 -36 -133 -79 -134 -205 -1 -106 12 -129 99 -173 57
-28 65 -30 237 -36 226 -7 232 -10 236 -117 3 -72 3 -72 -30 -92 -31 -19 -50
-20 -290 -20 l-258 0 0 -55 0 -56 293 3 292 3 60 30 c88 44 105 75 105 191 0
85 -2 95 -26 124 -57 67 -146 90 -355 90 -130 0 -139 1 -165 23 -23 20 -28 34
-32 83 -3 49 0 64 16 84 l20 25 276 3 276 3 0 54 0 55 -287 0 c-235 -1 -296
-4 -333 -17z"/>
<path d="M3241 2231 c-68 -24 -102 -49 -123 -92 -16 -29 -18 -65 -18 -271 0
-143 4 -248 11 -265 16 -44 58 -81 118 -105 51 -21 72 -23 252 -23 l196 0 66
-58 66 -58 94 3 95 3 -79 70 c-43 38 -79 72 -79 75 1 3 15 14 33 25 56 35 61
59 65 283 5 260 0 302 -41 349 -63 71 -92 78 -362 81 -214 2 -246 0 -294 -17z
m484 -106 c21 -8 39 -25 45 -40 6 -15 10 -118 10 -229 0 -191 -1 -205 -21
-230 l-21 -26 -62 55 -63 55 -97 0 -97 0 64 -57 64 -58 -94 -3 c-104 -3 -140
8 -160 48 -18 35 -18 415 0 450 20 39 67 49 240 49 116 1 167 -3 192 -14z"/>
<path d="M4040 1952 c0 -165 4 -312 10 -331 15 -55 66 -99 138 -121 57 -18 94
-20 333 -20 l269 0 0 55 0 55 -249 0 c-267 0 -306 6 -322 47 -5 13 -9 157 -9
319 l0 294 -85 0 -85 0 0 -298z"/>
<path d="M1310 1822 c0 -241 3 -249 105 -302 l68 -35 228 -3 229 -4 0 -44 c0
-77 -7 -78 -337 -82 l-283 -3 0 -55 0 -54 274 0 c150 0 298 5 327 10 73 14
139 49 167 90 22 32 22 38 22 357 l0 324 -82 -3 -83 -3 -3 -217 -2 -218 -183
0 c-192 0 -250 9 -267 40 -6 11 -10 100 -10 209 l0 191 -85 0 -85 0 0 -198z"/>
<path d="M4905 1675 c-29 -30 -35 -43 -35 -78 0 -97 94 -156 179 -113 41 22
61 59 61 112 0 39 -5 51 -34 80 -30 30 -40 34 -85 34 -44 0 -55 -4 -86 -35z
m153 -19 c48 -47 22 -140 -43 -157 -34 -10 -89 11 -104 39 -16 30 -13 84 5
110 33 47 100 51 142 8z"/>
<path d="M4940 1589 c0 -52 3 -70 13 -67 6 3 13 17 15 31 4 35 17 34 39 -3 9
-16 23 -30 31 -30 10 0 9 7 -5 31 -17 29 -17 31 0 40 20 12 22 40 5 57 -7 7
-31 12 -55 12 l-43 0 0 -71z m78 34 c-2 -10 -13 -19 -26 -21 -17 -3 -22 2 -22
17 0 16 6 21 26 21 19 0 25 -5 22 -17z"/>
</g>
</svg>
